<svg id="visual" viewBox="0 0 1300 70" width="1300" height="70" xmlns="http://www.w3.org/2000/svg" xmlns:xlink="http://www.w3.org/1999/xlink" version="1.1"><rect x="0" y="0" width="1300" height="70" fill="#473198"></rect><path d="M0 50L15.5 51C31 52 62 54 93 54.7C124 55.3 155 54.7 186 53.3C217 52 248 50 278.8 47.3C309.7 44.7 340.3 41.3 371.2 41.5C402 41.7 433 45.3 464 45.2C495 45 526 41 557 43.2C588 45.3 619 53.7 650 58.5C681 63.3 712 64.7 743 61C774 57.3 805 48.7 836 48.2C867 47.7 898 55.3 928.8 59.3C959.7 63.3 990.3 63.7 1021.2 63.7C1052 63.7 1083 63.3 1114 60.5C1145 57.7 1176 52.3 1207 51.3C1238 50.3 1269 53.7 1284.5 55.3L1300 57L1300 71L1284.5 71C1269 71 1238 71 1207 71C1176 71 1145 71 1114 71C1083 71 1052 71 1021.2 71C990.3 71 959.7 71 928.8 71C898 71 867 71 836 71C805 71 774 71 743 71C712 71 681 71 650 71C619 71 588 71 557 71C526 71 495 71 464 71C433 71 402 71 371.2 71C340.3 71 309.7 71 278.8 71C248 71 217 71 186 71C155 71 124 71 93 71C62 71 31 71 15.5 71L0 71Z" fill="#fff" stroke-linecap="round" stroke-linejoin="miter"></path></svg>